<svg width="167" height="40" viewBox="0 0 167 40" fill="none" xmlns="http://www.w3.org/2000/svg">
<path fill-rule="evenodd" clip-rule="evenodd" d="M32.269 0H0V32.088C0 36.458 3.562 40 7.957 40H40.226V7.912C40.226 3.542 36.664 0 32.269 0ZM31.606 3.297H3.315V31.429C3.315 34.342 5.69 36.704 8.619 36.704H36.909V8.571C36.909 5.658 34.534 3.296 31.604 3.296L31.606 3.297Z" fill="#FAFAFA"/>
<path d="M16.85 16.7969V31.5749C16.8502 31.7935 16.8936 32.01 16.9777 32.2118C17.0618 32.4136 17.1849 32.5968 17.34 32.7509C17.654 33.0629 18.079 33.2379 18.522 33.2379H19.426V34.2959H11.272V33.2649H12.065C12.5081 33.265 12.9333 33.0899 13.248 32.7779C13.4031 32.6238 13.5262 32.4406 13.6103 32.2388C13.6944 32.037 13.7378 31.8205 13.738 31.6019V16.8219C13.7378 16.6033 13.6944 16.3868 13.6103 16.185C13.5262 15.9832 13.4031 15.8 13.248 15.6459C12.9333 15.3339 12.5081 15.1589 12.065 15.1589H11.272V14.0179H19.423V15.1319H18.519C18.0764 15.1327 17.652 15.308 17.338 15.6199C17.1834 15.7741 17.0607 15.9572 16.9769 16.1588C16.8932 16.3604 16.8501 16.5766 16.85 16.7949V16.7969ZM26.202 16.7969V31.5749C26.2022 31.7935 26.2456 32.01 26.3297 32.2118C26.4138 32.4136 26.5369 32.5968 26.692 32.7509C27.006 33.0629 27.431 33.2379 27.874 33.2379H28.778V34.2959H20.631V33.2649H21.424C21.8668 33.2647 22.2915 33.0897 22.606 32.7779C22.7609 32.6239 22.884 32.4409 22.9681 32.2393C23.0522 32.0376 23.0956 31.8214 23.096 31.6029V16.8229C23.0956 16.6045 23.0522 16.3882 22.9681 16.1866C22.884 15.9849 22.7609 15.8019 22.606 15.6479C22.2915 15.3362 21.8668 15.1611 21.424 15.1609H20.631V14.0199H28.782V15.1339H27.878C27.6581 15.1336 27.4403 15.1764 27.237 15.2599C27.0337 15.3433 26.8488 15.466 26.693 15.6209C26.5375 15.7752 26.414 15.9587 26.3297 16.1608C26.2455 16.363 26.202 16.5799 26.202 16.7989V16.7969ZM25.478 8.83691V9.63191L25.231 9.76991L25.197 8.83691H25.478Z" fill="#FAFAFA"/>
<path d="M25.4771 9.63112V8.83712H25.1971L25.2311 9.76912L24.0211 10.4461V9.61312C24.0211 9.61312 23.3201 8.53112 20.0991 8.54012C17.1831 8.55012 16.1781 9.61712 16.1781 9.61712V10.4521H16.1221L13.6001 9.00412L20.0991 5.49512L26.5981 9.00412L25.4781 9.63112H25.4771Z" fill="#FAFAFA"/>
<path d="M24.0211 9.77307C23.2111 9.29407 21.7771 8.97607 20.1411 8.97607C18.4481 8.97607 16.9701 9.31707 16.1771 9.82407V11.7641C16.1771 11.7641 16.0641 12.5301 20.0981 12.5231C24.1321 12.5161 24.0201 11.8461 24.0201 11.8461V9.77307H24.0211ZM23.5731 11.8001C23.4771 11.9161 23.1401 12.0201 22.6361 12.1001H22.6211C21.7951 12.2141 20.9611 12.2681 20.1261 12.2611C19.3135 12.2679 18.5015 12.2175 17.6961 12.1101C17.0541 12.0141 16.6551 11.8801 16.6551 11.7271C16.6551 11.4401 18.2111 11.1981 20.1281 11.1981C22.0451 11.1981 23.6011 11.4421 23.6011 11.7341C23.6001 11.7591 23.5901 11.7821 23.5731 11.8001V11.8001ZM25.4771 9.63107V11.0761C25.4399 11.0684 25.402 11.0648 25.3641 11.0651C25.3349 11.0652 25.3058 11.0679 25.2771 11.0731L25.2301 9.76907L25.4761 9.63107H25.4771Z" fill="#FAFAFA"/>
<path fill-rule="evenodd" clip-rule="evenodd" d="M25.6728 11.5051C25.7408 11.4571 25.7828 11.3911 25.7828 11.3181C25.7828 11.1701 25.6078 11.0491 25.3918 11.0491C25.1758 11.0491 25.0008 11.1691 25.0008 11.3181C25.0008 11.4021 25.0568 11.4771 25.1448 11.5261C24.9638 11.9751 24.7018 12.7711 24.9648 13.0761C24.9788 13.0851 24.9828 13.0861 24.9868 13.0851H24.9978C25.0148 13.0761 25.0178 13.0721 25.0198 13.0671L25.2558 12.4141L25.2298 12.8631L25.2148 13.1411C25.2118 13.1601 25.2158 13.1791 25.2258 13.1951L25.2358 13.2061C25.2448 13.2111 25.2548 13.2151 25.2638 13.2171C25.3293 13.2388 25.3979 13.2499 25.4668 13.2501C25.4848 13.251 25.5029 13.251 25.5208 13.2501H25.5288C25.5458 13.2491 25.5628 13.2451 25.5768 13.2381C25.5908 13.2311 25.6048 13.2191 25.6148 13.2061C25.6268 13.1841 25.6308 13.1591 25.6268 13.1341L25.5968 12.4941L25.5888 12.4221L25.7908 13.0881C25.8088 13.1481 25.8738 13.0881 25.8738 13.0881C26.0788 12.8041 25.9938 12.3171 25.6728 11.5031V11.5051Z" fill="#FAFAFA"/>
<path d="M43.75 30.989V29.799H44.112C44.415 29.8008 44.7177 29.7777 45.017 29.73C45.305 29.684 45.555 29.592 45.769 29.453C45.983 29.305 46.15 29.098 46.27 28.83C46.39 28.562 46.451 28.207 46.451 27.764V13.976C46.451 13.533 46.391 13.178 46.27 12.91C46.149 12.642 45.983 12.439 45.769 12.301C45.556 12.153 45.305 12.056 45.017 12.01C44.7177 11.9623 44.415 11.9392 44.112 11.941H43.75V10.751H52.047V11.942H51.671C51.368 11.941 51.0654 11.964 50.766 12.011C50.479 12.057 50.228 12.154 50.014 12.302C49.796 12.457 49.6231 12.6672 49.513 12.911C49.393 13.179 49.332 13.534 49.332 13.977V27.765C49.332 28.208 49.392 28.563 49.513 28.831C49.643 29.099 49.81 29.306 50.014 29.454C50.227 29.592 50.478 29.685 50.766 29.731C51.054 29.777 51.356 29.8 51.671 29.8H52.047V30.991H43.75V30.989ZM61.597 29.799V30.99H53.926V29.799H54.163C54.488 29.799 54.789 29.776 55.068 29.73C55.356 29.684 55.602 29.592 55.806 29.453C56.0273 29.2956 56.2008 29.0799 56.307 28.83C56.437 28.562 56.502 28.207 56.502 27.764V18.918C56.502 18.503 56.437 18.17 56.307 17.921C56.186 17.663 56.019 17.464 55.806 17.326C55.593 17.188 55.342 17.095 55.054 17.049C54.7594 17.0017 54.4614 16.9786 54.163 16.98H54.079V15.789H58.687L59.063 18.087H59.202C59.499 17.561 59.81 17.132 60.135 16.8C60.469 16.459 60.817 16.195 61.179 16.011C61.5449 15.8188 61.9398 15.6877 62.348 15.623C62.766 15.549 63.202 15.512 63.657 15.512C64.409 15.512 65.077 15.623 65.662 15.844C66.2391 16.0448 66.7563 16.3877 67.166 16.841C67.584 17.284 67.899 17.856 68.113 18.558C68.336 19.259 68.447 20.095 68.447 21.064V27.764C68.447 28.207 68.498 28.562 68.6 28.83C68.711 29.098 68.864 29.305 69.059 29.453C69.254 29.592 69.486 29.684 69.755 29.73C70.0449 29.7777 70.3382 29.8008 70.632 29.799H70.729V30.99H65.759V21.203C65.759 20.585 65.703 20.036 65.592 19.556C65.4991 19.1162 65.3141 18.701 65.049 18.338C64.805 18.0036 64.4721 17.7444 64.088 17.59C63.689 17.415 63.202 17.327 62.626 17.327C61.976 17.327 61.429 17.452 60.983 17.701C60.552 17.9451 60.1885 18.2925 59.925 18.712C59.656 19.137 59.461 19.626 59.34 20.179C59.2267 20.7533 59.1707 21.3375 59.173 21.923V27.903C59.173 28.318 59.233 28.655 59.354 28.914C59.4696 29.1472 59.648 29.3435 59.869 29.481C60.082 29.61 60.328 29.698 60.607 29.744C60.9072 29.7815 61.2095 29.7999 61.512 29.799H61.596H61.597ZM79.097 29.771C79.4135 29.7727 79.7298 29.7544 80.044 29.716L80.921 29.577V30.823C80.8 30.878 80.642 30.934 80.448 30.989C80.2371 31.0474 80.0231 31.0939 79.807 31.128C79.584 31.174 79.348 31.206 79.097 31.225C78.8613 31.2518 78.6242 31.2655 78.387 31.266C77.663 31.266 77.041 31.188 76.522 31.031C76.002 30.883 75.575 30.639 75.241 30.297C74.907 29.955 74.656 29.503 74.489 28.94C74.331 28.377 74.252 27.689 74.252 26.877V17.408H72.08V16.273C72.423 16.273 72.799 16.204 73.208 16.065C73.6254 15.9269 74.0029 15.6894 74.308 15.373C74.6416 15.0086 74.906 14.5863 75.088 14.127C75.292 13.638 75.468 13.029 75.617 12.3H76.926V15.789H80.657V17.409H76.926V26.961C76.926 27.93 77.121 28.641 77.511 29.093C77.91 29.545 78.439 29.771 79.098 29.771H79.097ZM89.426 17.035C88.368 17.035 87.551 17.464 86.976 18.322C86.41 19.171 86.076 20.417 85.974 22.06H92.531C92.5361 21.3734 92.4802 20.6877 92.364 20.011C92.253 19.393 92.077 18.862 91.835 18.419C91.613 17.9971 91.2809 17.6433 90.874 17.395C90.484 17.155 90.002 17.035 89.426 17.035V17.035ZM89.774 31.266C88.744 31.266 87.816 31.095 86.99 30.754C86.1893 30.4151 85.479 29.8936 84.916 29.231C84.35 28.566 83.914 27.754 83.608 26.794C83.311 25.825 83.162 24.727 83.162 23.499C83.162 20.85 83.71 18.857 84.805 17.519C85.9 16.181 87.459 15.512 89.483 15.512C90.402 15.512 91.228 15.655 91.961 15.941C92.694 16.227 93.316 16.656 93.826 17.228C94.337 17.791 94.726 18.497 94.995 19.346C95.273 20.186 95.413 21.164 95.413 22.281V23.582H85.918C85.937 24.616 86.039 25.506 86.224 26.254C86.419 26.992 86.693 27.602 87.045 28.082C87.407 28.562 87.848 28.917 88.368 29.148C88.888 29.37 89.486 29.48 90.164 29.48C90.656 29.48 91.111 29.425 91.528 29.314C91.9297 29.2131 92.3178 29.0643 92.684 28.871C93.0088 28.6992 93.3126 28.4901 93.589 28.248C93.858 28.008 94.076 27.759 94.243 27.5C94.373 27.555 94.493 27.671 94.605 27.846C94.726 28.021 94.786 28.229 94.786 28.469C94.786 28.755 94.684 29.064 94.48 29.396C94.276 29.719 93.965 30.019 93.547 30.296C93.129 30.573 92.605 30.804 91.974 30.988C91.352 31.173 90.619 31.265 89.774 31.265V31.266ZM106.021 30.989H97.793V29.798H97.876C98.201 29.798 98.503 29.775 98.781 29.729C99.069 29.683 99.315 29.591 99.519 29.452C99.7403 29.2946 99.9138 29.0789 100.02 28.829C100.15 28.561 100.215 28.206 100.215 27.763V18.917C100.215 18.502 100.15 18.169 100.02 17.92C99.9 17.662 99.733 17.463 99.519 17.325C99.305 17.187 99.055 17.094 98.767 17.048C98.4724 17.0007 98.1744 16.9776 97.876 16.979H97.793V15.788H102.178L102.721 18.598H102.86L103.431 17.408C103.615 17.0452 103.854 16.7135 104.141 16.425C104.429 16.139 104.782 15.917 105.199 15.761C105.617 15.595 106.141 15.512 106.772 15.512C107.812 15.512 108.582 15.692 109.083 16.052C109.594 16.412 109.849 16.919 109.849 17.575C109.849 17.87 109.798 18.143 109.696 18.392C109.601 18.6447 109.442 18.8689 109.236 19.043C109.023 19.218 108.749 19.357 108.415 19.458C108.081 19.55 107.672 19.596 107.19 19.596C107.19 18.811 107.079 18.249 106.856 17.907C106.633 17.556 106.243 17.381 105.686 17.381C105.334 17.381 105.018 17.483 104.74 17.686C104.461 17.88 104.215 18.143 104.002 18.475C103.798 18.798 103.621 19.172 103.473 19.596C103.334 20.021 103.218 20.459 103.125 20.911C103.041 21.354 102.981 21.797 102.944 22.24L102.888 23.444V27.902C102.888 28.317 102.949 28.654 103.069 28.913C103.185 29.1462 103.363 29.3425 103.584 29.48C103.811 29.6138 104.061 29.7031 104.322 29.743C104.622 29.7805 104.924 29.7989 105.227 29.798H106.021V30.989V30.989ZM118.759 29.799V30.99H111.088V29.799H111.325C111.628 29.8007 111.93 29.7776 112.229 29.73C112.517 29.684 112.763 29.592 112.967 29.453C113.181 29.306 113.348 29.098 113.468 28.83C113.598 28.562 113.663 28.207 113.663 27.764V18.918C113.663 18.503 113.598 18.17 113.468 17.921C113.362 17.6787 113.188 17.4722 112.967 17.326C112.754 17.188 112.503 17.095 112.216 17.049C111.921 17.0018 111.623 16.9787 111.325 16.98H111.241V15.789H115.849L116.225 18.087H116.364C116.661 17.561 116.972 17.132 117.297 16.8C117.631 16.459 117.979 16.195 118.341 16.011C118.707 15.8188 119.102 15.6877 119.51 15.623C119.928 15.549 120.364 15.512 120.819 15.512C121.571 15.512 122.239 15.623 122.824 15.844C123.417 16.056 123.919 16.388 124.327 16.841C124.745 17.284 125.06 17.856 125.274 18.558C125.497 19.259 125.608 20.095 125.608 21.064V27.764C125.608 28.207 125.659 28.562 125.761 28.83C125.872 29.098 126.025 29.305 126.22 29.453C126.415 29.592 126.647 29.684 126.916 29.73C127.185 29.776 127.478 29.799 127.793 29.799H127.891V30.99H122.921V21.203C122.921 20.585 122.865 20.036 122.754 19.556C122.661 19.1162 122.476 18.701 122.211 18.338C121.967 18.0036 121.634 17.7444 121.25 17.59C120.851 17.415 120.364 17.327 119.789 17.327C119.139 17.327 118.591 17.452 118.146 17.701C117.715 17.9451 117.351 18.2925 117.088 18.712C116.808 19.1629 116.61 19.6594 116.503 20.179C116.39 20.7534 116.334 21.3376 116.336 21.923V27.903C116.336 28.318 116.397 28.655 116.517 28.914C116.633 29.1472 116.811 29.3435 117.032 29.481C117.259 29.6148 117.509 29.7041 117.77 29.744C118.058 29.781 118.359 29.799 118.675 29.799H118.759V29.799ZM129.784 30.989V29.799H130.145C130.47 29.799 130.772 29.776 131.05 29.73C131.317 29.6916 131.574 29.5972 131.802 29.453C132.024 29.296 132.197 29.0802 132.303 28.83C132.424 28.562 132.484 28.207 132.484 27.764V13.976C132.484 13.533 132.424 13.178 132.303 12.91C132.182 12.642 132.016 12.439 131.802 12.301C131.589 12.153 131.338 12.056 131.05 12.01C130.772 11.964 130.47 11.941 130.145 11.941H129.784V10.751H138.081V11.942H137.705C137.402 11.941 137.099 11.9641 136.8 12.011C136.531 12.0499 136.273 12.1494 136.048 12.302C135.844 12.441 135.677 12.643 135.547 12.911C135.426 13.179 135.366 13.534 135.366 13.977V27.765C135.366 28.208 135.426 28.563 135.547 28.831C135.677 29.099 135.844 29.306 136.048 29.454C136.262 29.592 136.512 29.685 136.8 29.731C137.099 29.7779 137.402 29.8009 137.705 29.8H138.081V30.991H129.784V30.989ZM147.631 29.799V30.99H139.96V29.799H140.197C140.522 29.799 140.823 29.776 141.102 29.73C141.389 29.684 141.635 29.592 141.839 29.453C142.053 29.306 142.22 29.098 142.341 28.83C142.471 28.562 142.535 28.207 142.535 27.764V18.918C142.535 18.503 142.471 18.17 142.341 17.921C142.22 17.663 142.053 17.464 141.839 17.326C141.625 17.188 141.375 17.095 141.088 17.049C140.793 17.0018 140.495 16.9787 140.197 16.98H140.113V15.789H144.721L145.097 18.087H145.236C145.533 17.561 145.844 17.132 146.169 16.8C146.503 16.459 146.851 16.195 147.213 16.011C147.579 15.8188 147.974 15.6877 148.382 15.623C148.8 15.549 149.236 15.512 149.691 15.512C150.443 15.512 151.111 15.623 151.696 15.844C152.29 16.056 152.791 16.388 153.199 16.841C153.617 17.284 153.932 17.856 154.146 18.558C154.369 19.259 154.48 20.095 154.48 21.064V27.764C154.48 28.207 154.531 28.562 154.633 28.83C154.728 29.0749 154.886 29.29 155.092 29.453C155.287 29.592 155.519 29.684 155.788 29.73C156.057 29.776 156.35 29.799 156.665 29.799H156.763V30.99H151.793V21.203C151.793 20.585 151.737 20.036 151.626 19.556C151.533 19.1162 151.348 18.701 151.083 18.338C150.842 18.006 150.522 17.756 150.123 17.59C149.723 17.415 149.236 17.327 148.661 17.327C148.011 17.327 147.464 17.452 147.018 17.701C146.587 17.9451 146.223 18.2925 145.96 18.712C145.68 19.1629 145.482 19.6594 145.375 20.179C145.262 20.7534 145.206 21.3376 145.208 21.923V27.903C145.208 28.318 145.269 28.655 145.389 28.914C145.505 29.1472 145.683 29.3435 145.904 29.481C146.131 29.6148 146.381 29.7041 146.642 29.744C146.93 29.781 147.231 29.799 147.547 29.799H147.631V29.799Z" fill="#FAFAFA"/>
<path d="M153.44 4.87H151.04V4H156.83V4.87H154.43V11H153.44V4.87ZM164.409 11L164.399 5.9L161.869 10.15H161.409L158.879 5.93V11H157.919V4H158.739L161.659 8.92L164.539 4H165.359L165.369 11H164.409Z" fill="#FAFAFA"/>
</svg>
